# xmcd
#
# Track frame offsets: 
#        150
#        3226
#        27704
#        42412
#        59654
#        72312
#        104329
#        139201
#        152790
#        168478
#
# Disc length: 2661 seconds
#
# Revision: 0
# Processed by: cddbd v1.5.2PL0 Copyright (c) Steve Scherf et al.
# Submitted via: ExactAudioCopy v1.3
#
DISCID=8f0a630a
DTITLE=The Nighthawks - Ten Years Live
DYEAR=1982
DGENRE=Chicago Blues
TTITLE0=Intro - Cerphe Colwell, WAVA
TTITLE1=Metropolitan Avenue
TTITLE2=Guard Your Heart
TTITLE3=Push And Shove
TTITLE4=Jenny Lou
TTITLE5=Moving Up In Class
TTITLE6=If You Go
TTITLE7=Back Stabbing Woman
TTITLE8=Destination
TTITLE9=No Secrets
EXTD=
EXTT0=
EXTT1=
EXTT2=
EXTT3=
EXTT4=
EXTT5=
EXTT6=
EXTT7=
EXTT8=
EXTT9=
PLAYORDER=
